<svg width="18" height="19" viewBox="0 0 18 19" fill="none" xmlns="http://www.w3.org/2000/svg">
<path d="M16.7009 1.12988H1.29909C0.928706 1.12988 0.629456 1.42913 0.629456 1.79952V17.2013C0.629456 17.5717 0.928706 17.8709 1.29909 17.8709H16.7009C17.0713 17.8709 17.3705 17.5717 17.3705 17.2013V1.79952C17.3705 1.42913 17.0713 1.12988 16.7009 1.12988ZM14.7673 6.01618H13.4301C12.3817 6.01618 12.1787 6.51423 12.1787 7.24666V8.86007H14.6815L14.3551 11.3859H12.1787V17.8709H9.56922V11.3879H7.38657V8.86007H9.56922V6.99763C9.56922 4.83594 10.8896 3.65778 12.8191 3.65778C13.744 3.65778 14.5371 3.72684 14.7694 3.75823V6.01618H14.7673Z" fill="#481B1F"/>
</svg>
