<svg width="18" height="19" viewBox="0 0 18 19" fill="none" xmlns="http://www.w3.org/2000/svg">
<path d="M8.99923 6.71114C7.46327 6.71114 6.20978 7.96463 6.20978 9.5006C6.20978 11.0366 7.46327 12.2901 8.99923 12.2901C10.5352 12.2901 11.7887 11.0366 11.7887 9.5006C11.7887 7.96463 10.5352 6.71114 8.99923 6.71114ZM17.3656 9.5006C17.3656 8.34549 17.3761 7.20082 17.3112 6.04778C17.2463 4.70849 16.9408 3.51988 15.9615 2.54052C14.98 1.55908 13.7935 1.25565 12.4542 1.19077C11.299 1.1259 10.1544 1.13636 9.00137 1.13636C7.84622 1.13636 6.70155 1.1259 5.54851 1.19077C4.20922 1.25565 3.02061 1.56117 2.04125 2.54052C1.05981 3.52197 0.756377 4.70849 0.691505 6.04778C0.626634 7.20291 0.637097 8.34758 0.637097 9.5006C0.637097 10.6536 0.626634 11.8004 0.691505 12.9534C0.756377 14.2927 1.06191 15.4814 2.04125 16.4607C3.0227 17.4422 4.20922 17.7456 5.54851 17.8104C6.70365 17.8753 7.84831 17.8649 9.00137 17.8649C10.1565 17.8649 11.3012 17.8753 12.4542 17.8104C13.7935 17.7456 14.9821 17.4401 15.9615 16.4607C16.9429 15.4793 17.2463 14.2927 17.3112 12.9534C17.3781 11.8004 17.3656 10.6558 17.3656 9.5006ZM8.99923 13.7926C6.62412 13.7926 4.70727 11.8757 4.70727 9.5006C4.70727 7.12548 6.62412 5.20863 8.99923 5.20863C11.3744 5.20863 13.2913 7.12548 13.2913 9.5006C13.2913 11.8757 11.3744 13.7926 8.99923 13.7926ZM13.467 6.03522C12.9125 6.03522 12.4647 5.5874 12.4647 5.03285C12.4647 4.4783 12.9125 4.03048 13.467 4.03048C14.0216 4.03048 14.4694 4.4783 14.4694 5.03285C14.4696 5.16453 14.4438 5.29495 14.3934 5.41663C14.3431 5.53832 14.2693 5.64889 14.1762 5.742C14.0831 5.83511 13.9725 5.90894 13.8508 5.95925C13.7291 6.00957 13.5987 6.03539 13.467 6.03522Z" fill="#481B1F"/>
</svg>
