<svg width="18" height="19" viewBox="0 0 18 19" fill="none" xmlns="http://www.w3.org/2000/svg">
<path d="M16.7009 1.12988H1.29909C0.928706 1.12988 0.629456 1.42913 0.629456 1.79952V17.2013C0.629456 17.5717 0.928706 17.8709 1.29909 17.8709H16.7009C17.0713 17.8709 17.3705 17.5717 17.3705 17.2013V1.79952C17.3705 1.42913 17.0713 1.12988 16.7009 1.12988ZM5.59527 15.3953H3.11132V7.40569H5.59527V15.3953ZM4.35435 6.31334C4.06959 6.31334 3.79124 6.2289 3.55447 6.0707C3.31771 5.9125 3.13317 5.68764 3.02421 5.42457C2.91524 5.16149 2.88672 4.87201 2.94228 4.59273C2.99783 4.31344 3.13495 4.05691 3.3363 3.85556C3.53765 3.65421 3.79419 3.51709 4.07347 3.46154C4.35274 3.40599 4.64223 3.4345 4.90531 3.54346C5.16838 3.65243 5.39324 3.83697 5.55144 4.07374C5.70963 4.3105 5.79408 4.58885 5.79408 4.8736C5.79198 5.66881 5.14745 6.31334 4.35435 6.31334ZM14.8949 15.3953H12.413V11.5094C12.413 10.5823 12.3963 9.39156 11.1219 9.39156C9.83073 9.39156 9.63196 10.4002 9.63196 11.4424V15.3953H7.1522V7.40569H9.53365V8.49805H9.56708C9.89776 7.87025 10.7076 7.20689 11.9171 7.20689C14.4325 7.20689 14.8949 8.86216 14.8949 11.0134V15.3953Z" fill="#481B1F"/>
</svg>
